# xmcd
#
# Track frame offsets:
#	150
#	15795
#	30648
#	47688
#	64517
#	81505
#	99303
#	114624
#	129520
#	148688
#	164725
#	178758
#	199059
#
# Disc length: 2809 seconds
#
# Revision: 1
# Processed by: cddbd v1.5.2PL0 Copyright (c) Steve Scherf et al.
# Submitted via: audiograbber 1.83.01
#
DISCID=ad0af70d
DTITLE=Various Artist - Cdx514
DYEAR=1900
DGENRE=
TTITLE0=Leann Rimes - Crazy Women
TTITLE1=David Ball - Hot Water Pie
TTITLE2=Ricky Scaggs - Someday Soon
TTITLE3=Larry Chance - For Your Precious Love
TTITLE4=Larry Chance - God Gave Me The Talent
TTITLE5=Kason Layne - Miss You Bad
TTITLE6=Brinn Black - Not That Girl
TTITLE7=Josh Hilley - The Sound Of Her Leaving
TTITLE8=Smokey River Boys - Number One Lady
TTITLE9=Lesliesmith Davis - Just Coming Down With Love
TTITLE10=Abbie Lynn - Love To Burn
TTITLE11=Kimberly Ann Cook - A Christmas Baby
TTITLE12=Tobi Gordon - Ring Those Joy Bells Of Christmas
EXTD=
EXTT0=
EXTT1=
EXTT2=
EXTT3=
EXTT4=
EXTT5=
EXTT6=
EXTT7=
EXTT8=
EXTT9=
EXTT10=
EXTT11=
EXTT12=
PLAYORDER=
